<svg version="1.0" xmlns="http://www.w3.org/2000/svg"
    width="512.000000pt" height="512.000000pt" viewBox="0 0 512.000000 512.000000"
    preserveAspectRatio="xMidYMid meet">

    <g transform="translate(0.000000,512.000000) scale(0.100000,-0.100000)"
        fill="#000000" stroke="none">
        <path
            d="M790 5105 c-195 -36 -349 -116 -497 -258 -111 -107 -194 -236 -242
-374 -52 -155 -51 -105 -51 -1913 0 -1808 -1 -1758 51 -1913 93 -271 325 -503
596 -596 155 -52 105 -51 1913 -51 1808 0 1758 -1 1913 51 271 93 503 325 596
596 52 155 51 105 51 1913 0 1808 1 1758 -51 1913 -93 271 -325 503 -596 596
-155 52 -103 51 -1922 50 -1371 -1 -1700 -3 -1761 -14z" />
    </g>
</svg>